PathFileType	4	(X/Y/Z)	32_2_59_p1_0-336_filt_butterworth.trc
DataRate	CameraRate	NumFrames	NumMarkers	Units	OrigDataRate	OrigDataStartFrame	OrigNumFrames
60.0	60.0	6	27	m	60.0	42	336
Frame#	Time	RHip			RKnee			RAnkle			RBigToe			RSmallToe			RHeel			LHip			LKnee			LAnkle			LBigToe			LSmallToe			LHeel			Neck			Head			Nose			RShoulder			RElbow			RWrist			RThumb			RIndex			RPinky			LShoulder			LElbow			LWrist			LThumb			LIndex			LPinky			
		X1	Y1	Z1	X2	Y2	Z2	X3	Y3	Z3	X4	Y4	Z4	X5	Y5	Z5	X6	Y6	Z6	X7	Y7	Z7	X8	Y8	Z8	X9	Y9	Z9	X10	Y10	Z10	X11	Y11	Z11	X12	Y12	Z12	X13	Y13	Z13	X14	Y14	Z14	X15	Y15	Z15	X16	Y16	Z16	X17	Y17	Z17	X18	Y18	Z18	X19	Y19	Z19	X20	Y20	Z20	X21	Y21	Z21	X22	Y22	Z22	X23	Y23	Z23	X24	Y24	Z24	X25	Y25	Z25	X26	Y26	Z26	X27	Y27	Z27	
42	0.7	0.32222984626509443	0.9279984646128353	0.4701034833172333	0.32165373632059285	0.5058521907134022	0.45435753067663026	0.3427398459344248	0.07739988297689668	0.5250406679761417	0.31564512513329873	0.08219673567908664	0.3444892060333414	0.38260875596998384	0.09600147862935665	0.3362233856759697	0.31839951119202986	-0.006591360675679999	0.6021239340664928	0.14030075019321603	0.8985271106958808	0.531409059717005	0.13114344853501833	0.47316673224035755	0.5324593967852094	0.12601739616360466	0.056776728624135867	0.5127189746759442	0.14052402925036261	0.11445627255590889	0.3057280627481019	0.0924351534178918	0.07257534557317515	0.3689998408806523	0.14034881156065082	0.0038599592831181605	0.5429667280997421	0.23494568738668584	1.4612063469300074	0.5600826244307242	0.22228760918890844	1.7009791115106314	0.5025203621564969	0.20255603391174376	1.590560971383527	0.4433907193855549	0.36768589329865153	1.3997488665966682	0.5055630771831567	0.364404745124179	1.177342118451213	0.3599021730535944	0.18260044339545006	1.1443590512637292	0.23158063375334145	0.06496968783181968	1.119647668886114	0.2082972155477796	0.0695318753566316	1.1142738167183945	0.17734575700162689	0.10496426610566167	1.0900129166204036	0.17382985479834992	0.09064464123932539	1.3700625245611975	0.5920719922914205	0.06054673797021098	1.115100404301457	0.597751597464953	0.09921636427145836	0.96628608295378	0.41106669826445086	0.15150973799021683	0.9293401812986999	0.3416184117129398	0.14427487696632676	0.9077652430571272	0.32877161346778255	0.12375049450195283	0.8572112797571668	0.3468609344099812	
43	0.7166666666666667	0.32316468655337216	0.9301527347967682	0.4660601108157551	0.32231234946713005	0.5066553681925304	0.4532906816267557	0.3455518612971739	0.07944822532620702	0.5228399419352209	0.3155668489891986	0.0780724733071921	0.34984564737319085	0.382575292357534	0.09652189916920118	0.33644002960200214	0.3220912423464818	-0.003148500126725337	0.5982376363600189	0.14220850437363788	0.9003896005467528	0.5289388675139554	0.13128791696069012	0.4748464478995407	0.53170615751755	0.12621865530982107	0.058206515262410996	0.5111761940056235	0.1404599574656021	0.11305242581591561	0.30595599500750514	0.09255315710355591	0.07309035770731742	0.369034047086118	0.14014823632390033	0.004211676530125379	0.5425479654089984	0.2356629832380821	1.461431738531503	0.5588348776730935	0.21830058405894864	1.7012045031914338	0.49889240531504103	0.20028886382866765	1.5905604149867563	0.44323084444838995	0.3668770039749354	1.4005776469310007	0.5053053462097226	0.36240340174243635	1.179842026850315	0.35740305002205025	0.17556528923345235	1.1484154369913655	0.23208947992068013	0.058000812221718684	1.129653279189521	0.2077379108186396	0.06142342337798522	1.1202440374270706	0.17888753917446407	0.10132452042992765	1.0931834420530886	0.1696913646609844	0.09176977039821055	1.3693318093020554	0.5961259978520945	0.06090389706140278	1.109363350079671	0.6169147732210839	0.09342273903973741	0.963920646964597	0.4288316187576435	0.14180252448173372	0.9280179185430366	0.3470236506813903	0.13515363787001605	0.9108113577847806	0.33915570572294657	0.11920861116199673	0.8603508086397892	0.35396289946065873	
44	0.7333333333333333	0.32474506207457876	0.9326398745047245	0.46146173733040985	0.3231860950040366	0.5073015437004774	0.45242285964967766	0.348393969576615	0.08126020894390465	0.5208394518382293	0.31538923417472925	0.07467546371534636	0.3542071249879121	0.38249078690889315	0.09660353637584188	0.33682294949240116	0.3260061670583655	0.0004847545779342391	0.5941154771037119	0.14456886204878452	0.9023953140335913	0.5261644689036418	0.131699276136752	0.47631878380174897	0.5308256559890872	0.12639049596023988	0.059663543645959285	0.509647534705976	0.14054685646937523	0.11211622438512867	0.3057060847109167	0.09266353103635308	0.07353193721984003	0.3690491534352557	0.14002494572752197	0.004828116710405561	0.5418092748089662	0.23585305902853854	1.4617674634420763	0.5569581619588364	0.21446545360119112	1.7013580255293888	0.49587428641876324	0.19841166922306222	1.5901439443279366	0.442751833195393	0.36610851590205185	1.401185586743055	0.5052691721236166	0.3611062739563643	1.182144430876008	0.35522531632411924	0.16964940644341966	1.1512336275897737	0.23250575132510257	0.0541889733317535	1.138656003223782	0.20686624174914597	0.055791531034886675	1.126035828430999	0.18207417356720193	0.09807139767196581	1.0978451438953476	0.16462247845565434	0.09291172322736674	1.3689859865824696	0.599344310641983	0.06163865343212438	1.105527186354488	0.6319924368316733	0.08846979117570178	0.9623535785367355	0.44461436532305115	0.1343919786982105	0.9266241743328748	0.35020315747840464	0.12878021797604966	0.912460604016983	0.3471218443445659	0.11321614431916724	0.8627669479837319	0.3634497478320378	
45	0.75	0.32682424869673526	0.9353193044559758	0.4568030159917392	0.324211872835819	0.5077565424151513	0.4517609461553731	0.3512013215266421	0.08270429940139573	0.5190943436020349	0.31499528435973956	0.072821550184386	0.35649682970234225	0.3824400530719558	0.09643268363708614	0.3370306523656909	0.3300329706619839	0.004111301102502369	0.5898413732423488	0.14719907140236566	0.9043199841618756	0.5233669558673204	0.13236394810073593	0.4774521648197842	0.5298012100431266	0.1265292855466233	0.061110198082894404	0.5081710465083807	0.14067412081666492	0.11177282935687285	0.3053622376943902	0.09283656484570656	0.07408132222676579	0.368923803408777	0.1399711705074001	0.005641386995915532	0.5408390862842473	0.23549007327171625	1.4621748931253031	0.5546796243765462	0.21076362283348407	1.7014741348555438	0.4933914390745774	0.19691446389341494	1.589338612191509	0.44230345426225726	0.3652391187782154	1.401654175865208	0.5052452722931878	0.360544759117632	1.183901334546426	0.3535399382268709	0.16530370691794233	1.1527120792000167	0.23295862041233392	0.052760385879936395	1.1457077884402285	0.20544227675472895	0.052285653520620104	1.131042466679993	0.1859998551476323	0.09492961233953501	1.1034770354679528	0.15887939831033365	0.0939735760111037	1.369212306239163	0.6015397296378643	0.06317473137486991	1.103897823488174	0.6409066813478965	0.08469789733491176	0.9618329094591461	0.4565055920352553	0.1298580301052568	0.9252391303496882	0.35230507815205364	0.12499667042465165	0.912544581371928	0.3525747667693675	0.10572755186954272	0.8644005980168958	0.3747098585699813	
46	0.7666666666666667	0.3291521266008762	0.9380001860603043	0.4526566141611797	0.3253280684095082	0.5080668820316767	0.45123048568533153	0.3538964458275278	0.0837585766398228	0.5176449320311266	0.3144145739149483	0.07276497601832461	0.3564164763932389	0.38243518995844894	0.0962489516308788	0.33702092878454976	0.3340724726645739	0.007673558323831396	0.5854878610655705	0.1499483713619239	0.9060284334133794	0.5208582442994184	0.13325496683757482	0.4783041215746831	0.528571753920188	0.12663331611988302	0.06251184692229489	0.5067839228417582	0.14076412386359152	0.11184484058487465	0.30519921986570797	0.09311247028500509	0.07485565153537793	0.36861500013059734	0.1399695820787211	0.0065160048653902895	0.5398193065083888	0.23477305636188578	1.46261064694295	0.552254363042409	0.20722208763663905	1.701564548069256	0.49142005871385386	0.19572598586742773	1.588307405733281	0.44211816594601755	0.3642641181252041	1.4020970545404199	0.505088834563357	0.3605648593674017	1.1849953789585477	0.3522675249598404	0.16231036875531568	1.1532802792299148	0.2327617012986567	0.052112679461024505	1.1503162225901307	0.20295748649750903	0.04965498432789753	1.134773901456119	0.1892644956947165	0.0917608634684765	1.1089883286955033	0.15286730397946943	0.09494706110583002	1.3700307121032766	0.6027863283033701	0.06579010320667958	1.1043537395352643	0.6430427881683506	0.08213753759843645	0.9620852998765346	0.4642678623101455	0.1272888532970479	0.9242846201176488	0.35446481322931533	0.12213654248774002	0.9112542054689754	0.3566080643334038	0.09737325690436442	0.8653545814177193	0.3869314711287628	
47	0.7833333333333333	0.3315391506582792	0.940520281035758	0.4494379910841004	0.3264883283812137	0.5083380213916165	0.4507485974968581	0.3563971395938367	0.08444525371838314	0.5165393499223553	0.3137413293927715	0.0741386342691379	0.3544902286906307	0.38245777050117974	0.09617014841484918	0.33689435633361303	0.3380598029704331	0.011154288760009443	0.5811456682890417	0.15272369930009333	0.9074674256743601	0.5187942822498183	0.13433432174606175	0.4790010980242855	0.5271621172070909	0.1267012176724179	0.06384997277317214	0.5055169363407688	0.14082294589474625	0.11190322584777196	0.3052565335433286	0.09340960068684111	0.07572672578923663	0.3683528681236966	0.1399603309394138	0.007372079361020301	0.5388552974363684	0.23402890086282074	1.463027076219937	0.5499774032168219	0.20391932331937795	1.7016412067034035	0.48968163820093996	0.1946980071009537	1.5872748360633555	0.4422992796717295	0.36321581225537547	1.4026202423424372	0.5045942847309582	0.36070737664786734	1.185566592125916	0.35106718957930255	0.15988934746047623	1.1537216966389354	0.23096638992572516	0.05081369642109314	1.152676933043959	0.19909562992519486	0.046700537629932586	1.1370015411809278	0.19039849380311905	0.08868485460742195	1.1133934202463327	0.14700873884393417	0.09591528873520334	1.371195292199772	0.6034315662175704	0.06953018785695957	1.1064821098345572	0.6396241544759416	0.08052397927446303	0.9626258464672285	0.4690269510877285	0.1245682339002214	0.9241293309300352	0.357219817890191	0.11776344353494941	0.9091370737283863	0.36100018422359526	0.08914016324613294	0.8657631754648925	0.39954335351363246	
